<svg xmlns="http://www.w3.org/2000/svg" xmlns:xlink="http://www.w3.org/1999/xlink" width="500" zoomAndPan="magnify" viewBox="0 0 375 374.999991" height="500" preserveAspectRatio="xMidYMid meet" version="1.0"><defs><g/><clipPath id="af0572327b"><path d="M 61.363281 43.683594 L 313.363281 43.683594 L 313.363281 212.433594 L 61.363281 212.433594 Z M 61.363281 43.683594 " clip-rule="nonzero"/></clipPath></defs><path fill="#366b68" d="M 17.25 0 L 357.75 0 C 367.277344 0 375 7.722656 375 17.25 L 375 357.75 C 375 367.277344 367.277344 375 357.75 375 L 17.25 375 C 7.722656 375 0 367.277344 0 357.75 L 0 17.25 C 0 7.722656 7.722656 0 17.25 0 " fill-opacity="1" fill-rule="nonzero"/><path fill="#ffffff" d="M 178.660156 58.644531 C 178.660156 62.472656 175.546875 65.585938 171.722656 65.585938 C 167.902344 65.585938 164.789062 62.472656 164.789062 58.644531 C 164.789062 54.820312 167.902344 51.707031 171.722656 51.707031 C 175.546875 51.707031 178.660156 54.816406 178.660156 58.644531 Z M 150.960938 125.574219 L 140.253906 150.34375 C 139.597656 151.855469 138.121094 152.761719 136.570312 152.761719 C 136.042969 152.761719 135.5 152.652344 134.980469 152.433594 C 132.949219 151.550781 132.015625 149.195312 132.894531 147.160156 L 143.609375 122.382812 C 141.359375 121.78125 139.003906 121.457031 136.570312 121.457031 C 121.535156 121.457031 109.296875 133.703125 109.296875 148.757812 C 109.296875 163.8125 121.53125 176.058594 136.570312 176.058594 C 151.613281 176.058594 163.847656 163.8125 163.847656 148.757812 C 163.847656 138.976562 158.691406 130.398438 150.960938 125.574219 Z M 238.160156 121.453125 C 235.398438 121.453125 232.742188 121.871094 230.226562 122.632812 L 241.78125 147.035156 C 242.367188 148.277344 242.28125 149.734375 241.542969 150.894531 C 240.808594 152.054688 239.53125 152.761719 238.160156 152.761719 L 211.179688 152.761719 C 213.125 165.917969 224.480469 176.046875 238.160156 176.046875 C 253.195312 176.046875 265.433594 163.800781 265.433594 148.746094 C 265.433594 133.691406 253.195312 121.453125 238.160156 121.453125 Z M 222.988281 126.074219 C 216.746094 130.269531 212.324219 136.980469 211.175781 144.738281 L 231.824219 144.738281 Z M 222.988281 126.074219 " fill-opacity="1" fill-rule="nonzero"/><g clip-path="url(#af0572327b)"><path fill="#1b1f14" d="M 311.292969 205.003906 C 294.050781 194.496094 274.816406 186.316406 254.128906 180.6875 C 253.929688 180.636719 253.730469 180.585938 253.535156 180.53125 C 265.308594 174.800781 273.4375 162.710938 273.4375 148.753906 C 273.4375 129.277344 257.613281 113.4375 238.152344 113.4375 C 234.167969 113.4375 230.339844 114.109375 226.769531 115.332031 L 221.925781 105.105469 C 225.707031 105.085938 228.597656 105.042969 229.644531 104.953125 C 230.738281 104.867188 231.742188 104.332031 232.429688 103.472656 C 233.117188 102.617188 233.425781 101.515625 233.28125 100.425781 C 229.929688 75.273438 217.226562 62.515625 195.539062 62.515625 C 194.433594 62.515625 193.371094 62.976562 192.609375 63.789062 L 169.972656 88.066406 L 161.066406 88.066406 C 159.46875 88.066406 158.023438 89.015625 157.390625 90.484375 L 146.8125 114.953125 C 143.570312 113.96875 140.132812 113.433594 136.570312 113.433594 C 117.113281 113.433594 101.285156 129.273438 101.285156 148.746094 C 101.285156 162.707031 109.421875 174.800781 121.191406 180.527344 C 120.996094 180.582031 120.792969 180.628906 120.597656 180.683594 C 99.90625 186.3125 80.675781 194.496094 63.433594 204.996094 C 61.542969 206.148438 60.945312 208.617188 62.09375 210.507812 C 63.242188 212.398438 65.710938 213 67.601562 211.851562 C 84.199219 201.738281 102.738281 193.851562 122.699219 188.421875 C 143.402344 182.785156 165.15625 179.933594 187.359375 179.933594 C 209.5625 179.933594 231.320312 182.792969 252.023438 188.421875 C 271.984375 193.851562 290.523438 201.738281 307.121094 211.851562 C 307.773438 212.246094 308.488281 212.433594 309.199219 212.433594 C 310.550781 212.433594 311.871094 211.75 312.625 210.507812 C 313.785156 208.617188 313.179688 206.152344 311.292969 205.003906 Z M 265.429688 148.753906 C 265.429688 163.800781 253.195312 176.050781 238.152344 176.050781 C 224.476562 176.050781 213.121094 165.917969 211.175781 152.765625 L 238.152344 152.765625 C 239.527344 152.765625 240.804688 152.0625 241.539062 150.898438 C 242.277344 149.734375 242.363281 148.28125 241.773438 147.039062 L 230.222656 122.636719 C 232.734375 121.871094 235.394531 121.457031 238.152344 121.457031 C 253.195312 121.453125 265.429688 133.699219 265.429688 148.753906 Z M 231.828125 144.738281 L 211.179688 144.738281 C 212.328125 136.980469 216.75 130.269531 222.992188 126.074219 Z M 207.570312 131.183594 L 195.078125 105.019531 C 199.953125 105.058594 206.753906 105.101562 213.066406 105.113281 L 219.535156 118.769531 C 214.597656 121.855469 210.480469 126.128906 207.570312 131.183594 Z M 171.71875 96.089844 C 171.742188 96.089844 171.765625 96.082031 171.789062 96.082031 C 171.863281 96.082031 171.929688 96.078125 172 96.074219 C 172.0625 96.070312 172.125 96.0625 172.191406 96.058594 C 172.253906 96.050781 172.3125 96.039062 172.378906 96.03125 C 172.445312 96.019531 172.515625 96.011719 172.582031 95.996094 C 172.636719 95.980469 172.695312 95.964844 172.75 95.949219 C 172.820312 95.929688 172.890625 95.917969 172.960938 95.890625 C 173.015625 95.871094 173.070312 95.851562 173.125 95.832031 C 173.191406 95.808594 173.253906 95.785156 173.320312 95.753906 C 173.378906 95.730469 173.433594 95.699219 173.484375 95.671875 C 173.546875 95.640625 173.605469 95.613281 173.664062 95.582031 C 173.722656 95.554688 173.777344 95.515625 173.828125 95.480469 C 173.882812 95.445312 173.941406 95.410156 173.992188 95.375 C 174.046875 95.34375 174.09375 95.300781 174.144531 95.261719 C 174.199219 95.222656 174.25 95.179688 174.304688 95.136719 C 174.351562 95.097656 174.394531 95.058594 174.4375 95.019531 C 174.492188 94.96875 174.546875 94.914062 174.601562 94.859375 C 174.613281 94.847656 174.628906 94.832031 174.644531 94.816406 L 197.257812 70.566406 C 205.109375 70.855469 211.121094 73.171875 215.59375 77.609375 C 219.910156 81.902344 222.941406 88.4375 224.625 97.070312 C 216.660156 97.148438 200.183594 97.054688 188.734375 96.949219 C 187.34375 96.9375 186.058594 97.636719 185.320312 98.804688 C 184.578125 99.972656 184.488281 101.4375 185.082031 102.683594 L 203.261719 140.765625 C 203.367188 140.992188 203.5 141.199219 203.644531 141.394531 C 203.40625 142.492188 203.230469 143.609375 203.101562 144.738281 L 191.550781 144.738281 L 163.859375 96.089844 Z M 143.609375 122.375 L 132.894531 147.15625 C 132.015625 149.191406 132.949219 151.546875 134.980469 152.425781 C 135.5 152.652344 136.042969 152.757812 136.570312 152.757812 C 138.121094 152.757812 139.59375 151.851562 140.253906 150.339844 L 150.960938 125.570312 C 158.691406 130.390625 163.851562 138.976562 163.851562 148.746094 C 163.851562 163.796875 151.617188 176.046875 136.578125 176.046875 C 121.535156 176.046875 109.300781 163.800781 109.300781 148.746094 C 109.300781 133.691406 121.535156 121.449219 136.578125 121.449219 C 139.003906 121.453125 141.367188 121.777344 143.609375 122.375 Z M 187.363281 171.917969 C 178.859375 171.917969 170.414062 172.324219 162.0625 173.136719 C 168.121094 166.789062 171.855469 158.203125 171.855469 148.753906 C 171.855469 135.6875 164.726562 124.265625 154.160156 118.15625 L 159.789062 105.140625 L 185.746094 150.738281 C 186.457031 151.988281 187.785156 152.761719 189.226562 152.761719 L 203.101562 152.761719 C 203.996094 160.621094 207.476562 167.703125 212.667969 173.136719 C 204.316406 172.324219 195.875 171.917969 187.363281 171.917969 Z M 171.71875 73.601562 C 179.960938 73.601562 186.667969 66.894531 186.667969 58.640625 C 186.667969 50.390625 179.964844 43.683594 171.71875 43.683594 C 163.476562 43.683594 156.769531 50.394531 156.769531 58.644531 C 156.769531 66.898438 163.480469 73.601562 171.71875 73.601562 Z M 171.71875 51.699219 C 175.542969 51.699219 178.652344 54.816406 178.652344 58.640625 C 178.652344 62.46875 175.542969 65.582031 171.71875 65.582031 C 167.898438 65.582031 164.785156 62.46875 164.785156 58.640625 C 164.785156 54.816406 167.898438 51.699219 171.71875 51.699219 Z M 171.71875 51.699219 " fill-opacity="1" fill-rule="nonzero"/></g><g fill="#ffffff" fill-opacity="1"><g transform="translate(74.976928, 270.966364)"><g><path d="M 21.777344 0.738281 C 26.984375 0.738281 31.824219 -0.945312 35.613281 -4.734375 L 31.5625 -8.785156 C 28.984375 -6.207031 25.195312 -4.785156 21.777344 -4.785156 C 12.308594 -4.785156 8.207031 -11.46875 8.207031 -18.199219 C 8.207031 -24.984375 12.363281 -31.878906 21.777344 -31.878906 C 25.195312 -31.878906 28.617188 -30.667969 31.296875 -28.089844 L 35.242188 -31.878906 C 31.457031 -35.664062 26.773438 -37.453125 21.777344 -37.453125 C 8.574219 -37.453125 2.367188 -27.828125 2.367188 -18.148438 C 2.367188 -8.46875 8.46875 0.738281 21.777344 0.738281 Z M 21.777344 0.738281 "/></g></g></g><g fill="#ffffff" fill-opacity="1"><g transform="translate(111.956476, 270.966364)"><g><path d="M 15.042969 0 L 20.9375 0 L 20.9375 -15.097656 L 35.558594 -36.558594 L 35.558594 -36.820312 L 28.457031 -36.820312 L 17.988281 -20.566406 L 7.835938 -36.820312 L 0.839844 -36.820312 L 0.839844 -36.558594 L 15.042969 -15.097656 Z M 15.042969 0 "/></g></g></g><g fill="#ffffff" fill-opacity="1"><g transform="translate(148.041797, 270.966364)"><g><path d="M 21.777344 0.738281 C 26.984375 0.738281 31.824219 -0.945312 35.613281 -4.734375 L 31.5625 -8.785156 C 28.984375 -6.207031 25.195312 -4.785156 21.777344 -4.785156 C 12.308594 -4.785156 8.207031 -11.46875 8.207031 -18.199219 C 8.207031 -24.984375 12.363281 -31.878906 21.777344 -31.878906 C 25.195312 -31.878906 28.617188 -30.667969 31.296875 -28.089844 L 35.242188 -31.878906 C 31.457031 -35.664062 26.773438 -37.453125 21.777344 -37.453125 C 8.574219 -37.453125 2.367188 -27.828125 2.367188 -18.148438 C 2.367188 -8.46875 8.46875 0.738281 21.777344 0.738281 Z M 21.777344 0.738281 "/></g></g></g><g fill="#ffffff" fill-opacity="1"><g transform="translate(185.021344, 270.966364)"><g><path d="M 4.628906 0 L 29.929688 0 L 29.929688 -5.46875 L 10.519531 -5.46875 L 10.519531 -36.820312 L 4.628906 -36.820312 Z M 4.628906 0 "/></g></g></g><g fill="#ffffff" fill-opacity="1"><g transform="translate(215.899004, 270.966364)"><g><path d="M 4.628906 0 L 10.46875 0 L 10.46875 -36.820312 L 4.628906 -36.820312 Z M 4.628906 0 "/></g></g></g><g fill="#ffffff" fill-opacity="1"><g transform="translate(230.995922, 270.966364)"><g><path d="M 4.628906 0 L 10.519531 0 L 10.519531 -14.359375 L 29.667969 -14.359375 L 29.667969 -19.832031 L 10.519531 -19.832031 L 10.519531 -31.089844 L 30.667969 -31.089844 L 30.667969 -36.820312 L 4.628906 -36.820312 Z M 4.628906 0 "/></g></g></g><g fill="#ffffff" fill-opacity="1"><g transform="translate(263.925086, 270.966364)"><g><path d="M 15.042969 0 L 20.9375 0 L 20.9375 -15.097656 L 35.558594 -36.558594 L 35.558594 -36.820312 L 28.457031 -36.820312 L 17.988281 -20.566406 L 7.835938 -36.820312 L 0.839844 -36.820312 L 0.839844 -36.558594 L 15.042969 -15.097656 Z M 15.042969 0 "/></g></g></g><g fill="#000000" fill-opacity="1"><g transform="translate(83.574762, 297.692376)"><g><path d="M 1.367188 0.710938 L 3.121094 1.597656 L 7.371094 -6.820312 L 8.433594 0.214844 L 8.808594 0.40625 L 15.148438 -2.890625 L 10.894531 5.523438 L 12.648438 6.410156 L 18.1875 -4.554688 L 16.152344 -5.582031 L 9.964844 -2.269531 L 8.941406 -9.226562 L 6.910156 -10.253906 Z M 1.367188 0.710938 "/></g></g></g><g fill="#000000" fill-opacity="1"><g transform="translate(99.990554, 305.818959)"><g><path d="M 0.144531 0.0585938 L 2.078125 0.847656 L 4.121094 -1.101562 L 10.273438 1.410156 L 10.386719 4.238281 L 12.316406 5.027344 L 11.855469 -8.410156 L 9.878906 -9.21875 Z M 5.480469 -2.476562 L 10.085938 -6.902344 L 10.28125 -0.515625 Z M 5.480469 -2.476562 "/></g></g></g><g fill="#000000" fill-opacity="1"><g transform="translate(114.853477, 311.75085)"><g><path d="M 1.464844 0.480469 L 3.328125 1.09375 L 5.074219 -4.214844 L 8.523438 2.800781 L 10.855469 3.570312 L 10.894531 3.453125 L 7.027344 -4.367188 L 14.199219 -8.171875 L 14.21875 -8.238281 L 11.90625 -9 L 5.507812 -5.53125 L 7.160156 -10.558594 L 5.296875 -11.171875 Z M 1.464844 0.480469 "/></g></g></g><g fill="#000000" fill-opacity="1"><g transform="translate(128.061925, 316.007824)"><g><path d="M 1.492188 0.386719 L 10.269531 2.644531 L 10.75 0.777344 L 3.875 -0.992188 L 4.699219 -4.183594 L 11.25 -2.496094 L 11.703125 -4.261719 L 5.152344 -5.949219 L 5.980469 -9.15625 L 12.800781 -7.398438 L 13.277344 -9.246094 L 4.554688 -11.496094 Z M 1.492188 0.386719 "/></g></g></g><g fill="#000000" fill-opacity="1"><g transform="translate(141.672315, 319.364209)"><g/></g></g><g fill="#000000" fill-opacity="1"><g transform="translate(148.319183, 320.752437)"><g><path d="M 4.277344 0.675781 L 6.230469 0.988281 L 7.875 -9.382812 L 11.839844 -8.753906 L 12.117188 -10.5 L 2.214844 -12.070312 L 1.9375 -10.320312 L 5.917969 -9.691406 Z M 4.277344 0.675781 "/></g></g></g><g fill="#000000" fill-opacity="1"><g transform="translate(161.320561, 322.774285)"><g><path d="M 1.535156 0.136719 L 3.492188 0.3125 L 3.945312 -4.769531 L 10.402344 -4.191406 L 9.949219 0.886719 L 11.886719 1.058594 L 12.976562 -11.160156 L 11.039062 -11.332031 L 10.566406 -6.007812 L 4.105469 -6.585938 L 4.582031 -11.910156 L 2.625 -12.082031 Z M 1.535156 0.136719 "/></g></g></g><g fill="#000000" fill-opacity="1"><g transform="translate(177.290955, 324.075327)"><g><path d="M 1.542969 0.0273438 L 10.601562 0.195312 L 10.636719 -1.730469 L 3.539062 -1.863281 L 3.601562 -5.15625 L 10.363281 -5.03125 L 10.398438 -6.855469 L 3.632812 -6.980469 L 3.695312 -10.292969 L 10.738281 -10.160156 L 10.777344 -12.070312 L 1.769531 -12.238281 Z M 1.542969 0.0273438 "/></g></g></g><g fill="#000000" fill-opacity="1"><g transform="translate(191.308492, 324.187312)"><g/></g></g><g fill="#000000" fill-opacity="1"><g transform="translate(198.118421, 324.020403)"><g><path d="M 7.253906 -0.339844 C 8.980469 -0.480469 10.542969 -1.167969 11.699219 -2.527344 L 10.246094 -3.765625 C 9.457031 -2.839844 8.238281 -2.265625 7.105469 -2.175781 C 3.960938 -1.921875 2.417969 -4.027344 2.238281 -6.265625 C 2.054688 -8.519531 3.25 -10.917969 6.375 -11.171875 C 7.511719 -11.261719 8.679688 -10.953125 9.640625 -10.167969 L 10.847656 -11.53125 C 9.488281 -12.6875 7.886719 -13.15625 6.226562 -13.023438 C 1.84375 -12.667969 0.0390625 -9.304688 0.300781 -6.089844 C 0.558594 -2.875 2.832031 0.015625 7.253906 -0.339844 Z M 7.253906 -0.339844 "/></g></g></g><g fill="#000000" fill-opacity="1"><g transform="translate(212.941844, 322.751043)"><g><path d="M 1.523438 -0.234375 L 3.464844 -0.535156 L 2.6875 -5.574219 L 9.097656 -6.5625 L 9.875 -1.523438 L 11.796875 -1.816406 L 9.925781 -13.941406 L 8.003906 -13.648438 L 8.820312 -8.363281 L 2.410156 -7.375 L 1.597656 -12.660156 L -0.34375 -12.359375 Z M 1.523438 -0.234375 "/></g></g></g><g fill="#000000" fill-opacity="1"><g transform="translate(228.787364, 320.21161)"><g><path d="M 0.152344 -0.0351562 L 2.183594 -0.507812 L 2.730469 -3.277344 L 9.199219 -4.777344 L 10.925781 -2.535156 L 12.957031 -3.003906 L 4.824219 -13.714844 L 2.742188 -13.230469 Z M 3.042969 -5.1875 L 4.25 -11.457031 L 8.097656 -6.359375 Z M 3.042969 -5.1875 "/></g></g></g><g fill="#000000" fill-opacity="1"><g transform="translate(244.381914, 316.497959)"><g><path d="M 1.472656 -0.460938 L 3.363281 -1.050781 L 0.78125 -9.316406 L 10.003906 -3.125 L 11.425781 -3.570312 L 7.765625 -15.28125 L 5.890625 -14.695312 L 8.496094 -6.363281 L -0.75 -12.621094 L -2.1875 -12.167969 Z M 1.472656 -0.460938 "/></g></g></g><g fill="#000000" fill-opacity="1"><g transform="translate(259.695539, 311.600346)"><g><path d="M 6.820312 -2.4375 C 8.757812 -3.203125 9.855469 -4.484375 10.515625 -6.199219 L 8.664062 -10.875 L 3.789062 -8.945312 L 4.4375 -7.316406 L 7.613281 -8.574219 L 8.53125 -6.261719 C 7.921875 -5.132812 7.121094 -4.535156 6.144531 -4.148438 C 3.175781 -2.972656 1.140625 -4.503906 0.3125 -6.589844 C -0.636719 -8.984375 0.113281 -11.523438 2.800781 -12.589844 C 3.859375 -13.007812 5.21875 -13.054688 6.363281 -12.585938 L 7.042969 -14.210938 C 5.402344 -14.917969 3.652344 -14.867188 2.136719 -14.265625 C -1.757812 -12.726562 -2.757812 -9.105469 -1.480469 -5.878906 C -0.273438 -2.832031 2.648438 -0.785156 6.820312 -2.4375 Z M 6.820312 -2.4375 "/></g></g></g><g fill="#000000" fill-opacity="1"><g transform="translate(274.124013, 305.77063)"><g><path d="M 1.390625 -0.664062 L 9.566406 -4.578125 L 8.730469 -6.316406 L 2.328125 -3.253906 L 0.90625 -6.222656 L 7.007812 -9.144531 L 6.222656 -10.789062 L 0.121094 -7.867188 L -1.308594 -10.855469 L 5.046875 -13.898438 L 4.222656 -15.621094 L -3.90625 -11.730469 Z M 1.390625 -0.664062 "/></g></g></g><g fill="#000000" fill-opacity="1"><g transform="translate(286.704023, 299.585019)"><g/></g></g></svg>